<svg version="1.1" id="img_icon_1_" xmlns="http://www.w3.org/2000/svg" xmlns:xlink="http://www.w3.org/1999/xlink" x="0px"
	 y="0px" viewBox="0 0 29 22" enable-background="new 0 0 29 22" reserveAspectRatio="xMidYMid meet" xml:space="preserve">
<path fill="#FFFFFF" d="M26.279,3.83h-4.705l-2.736-2.706c-0.002-0.003-0.006-0.006-0.008-0.009l-0.006-0.003
	c-0.41-0.402-0.976-0.65-1.6-0.65h-5.688c-0.661,0-1.251,0.281-1.667,0.726L9.868,1.181L7.189,3.83H2.387
	c-1.257,0-2.276,1.005-2.276,2.245v13.476c0,1.239,1.019,2.244,2.276,2.244h23.892c1.257,0,2.276-1.005,2.276-2.244V6.075
	C28.556,4.835,27.536,3.83,26.279,3.83z M26.777,19.551c0,0.27-0.223,0.489-0.498,0.489H2.387c-0.275,0-0.499-0.22-0.499-0.489
	V6.075c0-0.27,0.223-0.49,0.499-0.49h4.802c0.472,0,0.925-0.186,1.259-0.517l2.567-2.538c0.057-0.048,0.112-0.098,0.163-0.153
	c0.069-0.073,0.187-0.161,0.359-0.161h5.688c0.168,0,0.281,0.077,0.347,0.142c0.013,0.012,0.026,0.024,0.04,0.037l2.703,2.674
	c0.334,0.331,0.787,0.517,1.26,0.517h4.705c0.275,0,0.498,0.221,0.498,0.49V19.551z"/>
<path fill="#FFFFFF" d="M14.333,6.111c-3.43,0-6.222,2.754-6.222,6.139c0,3.386,2.792,6.141,6.222,6.141
	c3.431,0,6.222-2.755,6.222-6.141C20.555,8.865,17.764,6.111,14.333,6.111z M14.333,16.636c-2.45,0-4.444-1.968-4.444-4.386
	c0-2.417,1.994-4.384,4.444-4.384s4.444,1.967,4.444,4.384C18.777,14.668,16.783,16.636,14.333,16.636z"/>
</svg>
