<svg version="1.1" id="Layer_3" xmlns="http://www.w3.org/2000/svg" xmlns:xlink="http://www.w3.org/1999/xlink" x="0px" y="0px"
	  viewBox="0 0 30 40" enable-background="new 0 0 30 40" reserveAspectRatio="xMidYMid meet" xml:space="preserve">
<g>
	<g>
		<path fill="#321E46" d="M27,0H7C5.346,0,4,1.346,4,3v1H3C1.346,4,0,5.346,0,7v30c0,1.654,1.346,3,3,3h20c1.654,0,3-1.346,3-3v-1h1
			c1.654,0,3-1.346,3-3V3C30,1.346,28.654,0,27,0z M24,37c0,0.551-0.449,1-1,1H3c-0.551,0-1-0.449-1-1V7c0-0.551,0.449-1,1-1h1h19
			c0.551,0,1,0.449,1,1v29V37z M28,33c0,0.551-0.449,1-1,1h-1V7c0-1.654-1.346-3-3-3H6V3c0-0.551,0.449-1,1-1h20
			c0.551,0,1,0.449,1,1V33z"/>
		<path fill="#321E46" d="M18.219,12.447V12c0-1.654-1.346-3-3-3h-4c-1.654,0-3,1.346-3,3v4c0,1.654,1.346,3,3,3h0.16l-1.201,2.398
			c-0.395,0.787-0.396,1.604-0.006,2.238c0.393,0.635,1.123,1,2.006,1h4c0.881,0,1.611-0.363,2.002-1
			c0.307-0.496,0.365-1.102,0.189-1.719c1.988-0.664,3.412-2.51,3.412-4.707C21.781,14.957,20.273,13.068,18.219,12.447z M10.219,16
			v-4c0-0.551,0.449-1,1-1h4c0.551,0,1,0.449,1,1v0.242c-0.084,0.01-0.162,0.037-0.244,0.051c-0.135,0.021-0.268,0.049-0.4,0.082
			c-0.174,0.043-0.344,0.098-0.51,0.158c-0.129,0.047-0.254,0.096-0.377,0.152c-0.158,0.074-0.311,0.16-0.461,0.25
			c-0.113,0.068-0.229,0.135-0.338,0.211c-0.146,0.105-0.279,0.223-0.412,0.342c-0.096,0.084-0.195,0.162-0.283,0.254
			c-0.139,0.143-0.258,0.301-0.379,0.459c-0.064,0.084-0.139,0.162-0.197,0.252c-0.17,0.254-0.316,0.521-0.438,0.805
			c-0.018,0.041-0.025,0.086-0.041,0.127c-0.1,0.248-0.184,0.504-0.24,0.77c-0.021,0.104-0.027,0.211-0.043,0.316
			c-0.025,0.176-0.062,0.348-0.07,0.529h-0.566C10.668,17,10.219,16.551,10.219,16z M16.178,22.637h-4
			c-0.178,0-0.273-0.037-0.293-0.037c-0.002,0-0.004,0-0.004,0.002c-0.006-0.023-0.002-0.131,0.086-0.307l2.211-4.42l2.209,4.422
			c0.088,0.172,0.092,0.279,0.102,0.279C16.471,22.592,16.373,22.637,16.178,22.637z M17.529,20.104l-1.562-3.125
			c-0.406-0.807-1.045-1.275-1.756-1.289c0.012-0.02,0.02-0.041,0.033-0.061c0.121-0.195,0.26-0.381,0.422-0.543
			c0.004-0.004,0.01-0.008,0.016-0.012c0.158-0.156,0.34-0.289,0.529-0.408c0.057-0.035,0.119-0.064,0.178-0.096
			c0.152-0.082,0.312-0.148,0.479-0.201c0.064-0.021,0.129-0.045,0.197-0.062c0.23-0.057,0.469-0.096,0.717-0.096l0.627,0.068
			c1.354,0.289,2.373,1.492,2.373,2.932C19.781,18.604,18.832,19.773,17.529,20.104z"/>
		<path fill="#321E46" d="M20,29H10c-0.553,0-1,0.447-1,1s0.447,1,1,1h10c0.553,0,1-0.447,1-1S20.553,29,20,29z"/>
		<path fill="#321E46" d="M18.5,33h-7c-0.553,0-1,0.447-1,1s0.447,1,1,1h7c0.553,0,1-0.447,1-1S19.053,33,18.5,33z"/>
		<path fill="#321E46" d="M5,8C4.447,8,4,8.447,4,9v26c0,0.553,0.447,1,1,1s1-0.447,1-1V9C6,8.447,5.553,8,5,8z"/>
	</g>
</g>
</svg>
