<svg version="1.1" id="Layer_3" xmlns="http://www.w3.org/2000/svg" xmlns:xlink="http://www.w3.org/1999/xlink" x="0px" y="0px"
	  viewBox="0 0 30 40" enable-background="new 0 0 30 40" reserveAspectRatio="xMidYMid meet" xml:space="preserve">
<g>
	<g>
		<path fill="#321E46" d="M27,40H3c-1.654,0-3-1.346-3-3V3c0-1.654,1.346-3,3-3h24c1.654,0,3,1.346,3,3v34
			C30,38.654,28.654,40,27,40z M3,2C2.448,2,2,2.449,2,3v34c0,0.551,0.448,1,1,1h24c0.552,0,1-0.449,1-1V3c0-0.551-0.448-1-1-1H3z"
			/>
		<path fill="#321E46" d="M24,33H6c-1.654,0-3-1.346-3-3V6c0-1.654,1.346-3,3-3h18c1.654,0,3,1.346,3,3v24
			C27,31.654,25.654,33,24,33z M6,5C5.448,5,5,5.449,5,6v24c0,0.551,0.448,1,1,1h18c0.552,0,1-0.449,1-1V6c0-0.551-0.448-1-1-1H6z"
			/>
		<circle fill="#321E46" cx="15" cy="35.5" r="2"/>
		<g>
			<path fill="#321E46" d="M22,11H12c-0.553,0-1-0.447-1-1l0,0c0-0.553,0.447-1,1-1h10c0.553,0,1,0.447,1,1l0,0
				C23,10.553,22.553,11,22,11z"/>
			<path fill="#321E46" d="M22,15H8c-0.553,0-1-0.447-1-1l0,0c0-0.553,0.447-1,1-1h14c0.553,0,1,0.447,1,1l0,0
				C23,14.553,22.553,15,22,15z"/>
			<path fill="#321E46" d="M22,19H8.001c-0.553,0-1-0.447-1-1l0,0c0-0.553,0.447-1,1-1H22c0.553,0,1,0.447,1,1l0,0
				C23,18.553,22.553,19,22,19z"/>
			<path fill="#321E46" d="M22,23H8.001c-0.553,0-1-0.447-1-1l0,0c0-0.553,0.447-1,1-1H22c0.553,0,1,0.447,1,1l0,0
				C23,22.553,22.553,23,22,23z"/>
			<path fill="#321E46" d="M16,27H8.001c-0.553,0-1-0.447-1-1l0,0c0-0.553,0.447-1,1-1H16c0.553,0,1,0.447,1,1l0,0
				C17,26.553,16.553,27,16,27z"/>
		</g>
	</g>
</g>
</svg>
