<svg version="1.1" id="Layer_1" xmlns="http://www.w3.org/2000/svg" xmlns:xlink="http://www.w3.org/1999/xlink" x="0px" y="0px"
	  viewBox="0 0 40 40" enable-background="new 0 0 40 40" reserveAspectRatio="xMidYMid meet" xml:space="preserve">
<path fill="#2D1D48" d="M39.084,0.913c-1.16-1.179-3.191-1.227-4.407-0.081L10.363,24.141c-2.299,0.403-4.803,1.798-6.701,3.876
	c-2.774,3.042-4.225,9.32-3.458,11.101c0.237,0.554,0.702,0.884,1.243,0.884c0.43,0,0.839-0.203,1.25-0.617
	c1.186-1.204,2.189-1.016,3.401-0.896c0.494,0.048,1.009,0.096,1.555,0.096c1.05,0,2.679-0.157,4.684-1.509
	c3.017-2.034,4.263-4.895,4.322-7.378L39.166,5.385C40.31,4.131,40.273,2.126,39.084,0.913z M14.006,23.441l2.93,2.986l-0.749,0.808
	l-2.061-2.097l-0.917-0.933L14.006,23.441z M11.229,35.382C9.692,36.417,8.51,36.55,7.652,36.55c-0.479,0-0.931-0.044-1.365-0.087
	c-0.463-0.044-0.909-0.085-1.347-0.085c-0.799,0-1.81,0.118-2.947,0.951c0.151-1.904,1.192-5.799,3.136-7.931
	c1.865-2.045,4.422-3.365,6.514-3.365c0.197,0,0.388,0.013,0.569,0.037l2.358,2.401C15.006,30.54,14.154,33.406,11.229,35.382z
	 M37.703,3.998L18.309,24.944l-2.846-2.898l20.58-19.729c0.438-0.413,1.203-0.395,1.623,0.032C38.1,2.79,38.114,3.549,37.703,3.998z
	"/>
</svg>
