<svg version="1.1" id="Layer_3" xmlns="http://www.w3.org/2000/svg" xmlns:xlink="http://www.w3.org/1999/xlink" x="0px" y="0px"
	  viewBox="0 0 40 30" enable-background="new 0 0 40 30" reserveAspectRatio="xMidYMid meet" xml:space="preserve">
<path fill="#321E46" d="M37.263,15.621C39.034,13.951,40,11.918,40,9.832C40,4.41,33.556,0,25.632,0
	C19.33,0,13.976,2.795,12.043,6.664C5.226,7.43,0,11.477,0,16.355c0,2.084,0.966,4.119,2.737,5.789l-1.748,5.505
	c-0.243,0.769-0.202,1.382,0.122,1.821C1.359,29.807,1.75,30,2.182,30c0.427,0,0.876-0.182,1.372-0.555l5.311-4.01
	c1.759,0.5,3.609,0.752,5.506,0.752c6.31,0,11.67-2.801,13.595-6.68c1.082-0.123,2.146-0.305,3.174-0.596l5.311,4.01
	c0.495,0.373,0.942,0.555,1.371,0.555c0.433,0,0.823-0.193,1.07-0.529c0.324-0.441,0.365-1.055,0.12-1.82L37.263,15.621z
	 M14.37,8.523c6.812,0,12.355,3.514,12.355,7.832c0,0.424-0.068,0.836-0.171,1.24c-0.311,0.015-0.61,0.068-0.923,0.068
	c-6.814,0-12.357-3.514-12.357-7.832c0-0.438,0.071-0.861,0.181-1.279C13.758,8.539,14.062,8.523,14.37,8.523z M14.37,24.188
	c-1.873,0-3.692-0.271-5.404-0.809L8.47,23.223L3.254,27.16l1.799-5.666l-0.515-0.43c-1.152-0.963-2.527-2.562-2.527-4.709
	c0-3.658,3.982-6.729,9.339-7.586c-0.055,0.35-0.086,0.703-0.086,1.062c0,5.404,6.403,9.801,14.291,9.83
	C23.584,22.33,19.316,24.188,14.37,24.188z M31.532,16.699l-0.496,0.156c-0.771,0.242-1.573,0.412-2.385,0.547
	c0.056-0.344,0.085-0.694,0.085-1.047c0-5.404-6.403-9.801-14.291-9.83C16.416,3.857,20.684,2,25.632,2
	c6.813,0,12.357,3.514,12.357,7.832c0,2.146-1.375,3.744-2.527,4.707l-0.515,0.43l1.799,5.665L31.532,16.699z"/>
</svg>
