<svg version="1.1" id="Layer_3" xmlns="http://www.w3.org/2000/svg" xmlns:xlink="http://www.w3.org/1999/xlink" x="0px" y="0px"
	  viewBox="0 0 40 40" enable-background="new 0 0 40 40" reserveAspectRatio="xMidYMid meet" xml:space="preserve">
<g>
	<g>
		<path fill="#321E46" d="M36.998,2h-3.996V0.999C33.002,0.446,32.55,0,31.998,0c-0.553,0-0.999,0.446-0.999,0.999V2h-1.998V0.999
			C29.001,0.446,28.555,0,28.002,0c-0.552,0-1.004,0.446-1.004,0.999V2H25V0.999C25,0.446,24.554,0,24.001,0
			s-0.999,0.446-0.999,0.999V2h-2.003V0.999C20.999,0.446,20.553,0,20,0s-0.999,0.446-0.999,0.999V2h-2.003V0.999
			C16.998,0.446,16.552,0,15.999,0S15,0.446,15,0.999V2h-1.998V0.999C13.002,0.446,12.55,0,11.998,0
			c-0.553,0-0.999,0.446-0.999,0.999V2H9.001V0.999C9.001,0.446,8.555,0,8.002,0C7.45,0,6.998,0.446,6.998,0.999V2H3.002
			C1.345,2,0,3.345,0,5v32c0,1.655,1.345,3,3.002,3h33.996C38.655,40,40,38.655,40,37V5C40,3.345,38.655,2,36.998,2z M3.002,4.001
			h3.996v3C6.998,7.553,7.45,8,8.002,8C8.555,8,9.001,7.553,9.001,7v-3h1.998v3C10.999,7.553,11.445,8,11.998,8
			C12.55,8,13.002,7.553,13.002,7v-3H15v3C15,7.553,15.446,8,15.999,8S16.998,7.553,16.998,7v-3h2.003v3C19.001,7.553,19.447,8,20,8
			S20.999,7.553,20.999,7v-3h2.003v3C23.002,7.553,23.448,8,24.001,8S25,7.553,25,7v-3h1.998v3C26.998,7.553,27.45,8,28.002,8
			C28.555,8,29.001,7.553,29.001,7v-3h1.998v3C30.999,7.553,31.445,8,31.998,8C32.55,8,33.002,7.553,33.002,7v-3h3.996
			c0.552,0,1.004,0.446,1.004,0.999v7H1.998V5C1.998,4.447,2.45,4.001,3.002,4.001z M36.998,38H3.002C2.45,38,1.998,37.553,1.998,37
			v-23h36.004v23C38.002,37.553,37.55,38,36.998,38z"/>
		<path fill="#321E46" d="M20.999,15.999h-1.998c-1.104,0-2.003,0.898-2.003,2v2c0,1.102,0.898,2,2.003,2h1.998
			c1.104,0,2.003-0.898,2.003-2v-2C23.002,16.897,22.104,15.999,20.999,15.999z M20.999,20.999V20h-1.998v-2h1.998v2h0.006
			L20.999,20.999z"/>
		<path fill="#321E46" d="M28.002,15.999h-2.003c-1.105,0-1.998,0.898-1.998,2v2c0,1.102,0.893,2,1.998,2h2.003
			c1.1,0,1.998-0.898,1.998-2v-2C30,16.897,29.102,15.999,28.002,15.999z M28.002,20.999V20h-2.003v-2h2.003v2l0,0V20.999z"/>
		<path fill="#321E46" d="M35,15.999h-1.998c-1.104,0-2.003,0.898-2.003,2v2c0,1.102,0.898,2,2.003,2H35
			c1.104,0,1.998-0.898,1.998-2v-2C36.998,16.897,36.104,15.999,35,15.999z M35,20.999V20h-1.998v-2H35v2l0,0V20.999z"/>
		<path fill="#321E46" d="M6.998,23H5c-1.104,0-1.998,0.898-1.998,2v2c0,1.102,0.894,2,1.998,2h1.998c1.104,0,2.003-0.898,2.003-2
			v-2C9.001,23.898,8.103,23,6.998,23z M6.998,28V27H5v-2h1.998v2h0.005L6.998,28z"/>
		<path fill="#321E46" d="M14.001,23h-2.003C10.898,23,10,23.898,10,25v2c0,1.102,0.898,2,1.998,2h2.003
			c1.105,0,1.998-0.898,1.998-2v-2C15.999,23.898,15.106,23,14.001,23z M14.001,28V27h-2.003v-2h2.003v2l0,0V28z"/>
		<path fill="#321E46" d="M20.999,23h-1.998c-1.104,0-2.003,0.898-2.003,2v2c0,1.102,0.898,2,2.003,2h1.998
			c1.104,0,2.003-0.898,2.003-2v-2C23.002,23.898,22.104,23,20.999,23z M20.999,28V27h-1.998v-2h1.998v2h0.006L20.999,28z"/>
		<path fill="#321E46" d="M28.002,23h-2.003c-1.105,0-1.998,0.898-1.998,2v2c0,1.102,0.893,2,1.998,2h2.003
			c1.1,0,1.998-0.898,1.998-2v-2C30,23.898,29.102,23,28.002,23z M28.002,28V27h-2.003v-2h2.003v2l0,0V28z"/>
		<path fill="#321E46" d="M35,23h-1.998c-1.104,0-2.003,0.898-2.003,2v2c0,1.102,0.898,2,2.003,2H35c1.104,0,1.998-0.898,1.998-2v-2
			C36.998,23.898,36.104,23,35,23z M35,28V27h-1.998v-2H35v2l0,0V28z"/>
		<path fill="#321E46" d="M6.998,30H5c-1.104,0-1.998,0.898-1.998,2v2c0,1.102,0.894,1.998,1.998,1.998h1.998
			c1.104,0,2.003-0.896,2.003-1.998v-2C9.001,30.898,8.103,30,6.998,30z M6.998,35v-0.999H5v-2h1.998l0.005,2L6.998,35z"/>
		<path fill="#321E46" d="M14.001,30h-2.003C10.898,30,10,30.898,10,32v2c0,1.102,0.898,1.998,1.998,1.998h2.003
			c1.105,0,1.998-0.896,1.998-1.998v-2C15.999,30.898,15.106,30,14.001,30z M14.001,35v-0.999h-2.003v-2h2.003v2V35z"/>
		<path fill="#321E46" d="M20.999,30h-1.998c-1.104,0-2.003,0.898-2.003,2v2c0,1.102,0.898,1.998,2.003,1.998h1.998
			c1.104,0,2.003-0.896,2.003-1.998v-2C23.002,30.898,22.104,30,20.999,30z M20.999,35v-0.999h-1.998v-2h1.998l0.006,2L20.999,35z"
			/>
		<path fill="#321E46" d="M28.002,30h-2.003c-1.105,0-1.998,0.898-1.998,2v2c0,1.102,0.893,1.998,1.998,1.998h2.003
			c1.1,0,1.998-0.896,1.998-1.998v-2C30,30.898,29.102,30,28.002,30z M28.002,35v-0.999h-2.003v-2h2.003v2V35z"/>
	</g>
</g>
</svg>
