<svg version="1.1" id="Layer_3" xmlns="http://www.w3.org/2000/svg" xmlns:xlink="http://www.w3.org/1999/xlink" x="0px" y="0px"
	  viewBox="0 0 40 30" enable-background="new 0 0 40 30" reserveAspectRatio="xMidYMid meet" xml:space="preserve">
<g>
	<g>
		<path fill="#321E46" d="M39.998,19.995c0-1.325-0.869-2.44-2.062-2.836v-4.987l0.837-0.396C39.881,11.251,40,10.446,40,10.123
			c-0.002-0.322-0.121-1.127-1.227-1.649L21.72,0.392c-1.105-0.521-2.902-0.522-4.008,0.001L1.225,8.204
			C0.119,8.728,0,9.532,0,9.854c-0.002,0.323,0.117,1.128,1.225,1.652L7,14.244v9.753C7,27.42,12.587,30,19.999,30s13-2.58,13-6.003
			v-9.484l2.937-1.393v4.078c-1.129,0.431-1.938,1.518-1.938,2.797c0,1.37,0.928,2.515,2.185,2.875l-1.185,2.366
			c-0.395,0.788-0.395,1.605-0.004,2.239c0.394,0.635,1.123,0.999,2.005,0.999c0.88,0,1.61-0.364,2.003-0.999
			c0.391-0.634,0.391-1.451-0.004-2.239l-1.184-2.366C39.07,22.51,39.998,21.365,39.998,19.995z M18.567,2.201
			c0.57-0.271,1.727-0.271,2.297-0.001l16.701,7.935l-16.137,7.646c-0.562,0.266-1.734,0.265-2.297,0.001L2.434,9.845L18.567,2.201z
			 M30.999,15.461v8.536c0,1.89-4.705,4.002-11,4.002S9,25.887,9,23.997v-8.804l9.277,4.397c0.552,0.26,1.263,0.403,2.003,0.403
			s1.451-0.144,2.004-0.404L30.999,15.461z M36.707,26.436c-0.004,0-0.004,0.001-0.004,0.001c-0.006-0.023-0.003-0.13,0.085-0.306
			l0.211-0.422l0.21,0.422c0.088,0.174,0.09,0.28,0.1,0.28C37.276,26.44,36.745,26.437,36.707,26.436z M36.999,20.996
			c-0.552,0-1.001-0.449-1.001-1.001s0.449-1,1.001-1c0.551,0,1,0.448,1,1S37.55,20.996,36.999,20.996z"/>
		<ellipse fill="#321E46" cx="20" cy="9.796" rx="2" ry="1"/>
	</g>
</g>
</svg>
