<svg version="1.1" id="Layer_1" xmlns="http://www.w3.org/2000/svg" xmlns:xlink="http://www.w3.org/1999/xlink" x="0px" y="0px"
	viewBox="0 0 377.281 46.8" enable-background="new 0 0 377.281 46.8" reserveAspectRatio="xMidYMid meet" xml:space="preserve">
<g id="New_Symbol" display="none">
</g>
<g>
	<g>
		<g>
			<g>
				<g>
					<path fill="#FCE200" d="M377.233,37.607c-12.787,0-22.764-4.272-32.412-8.403c-9.608-4.114-18.684-7.999-30.444-7.999
						s-20.836,3.885-30.444,7.999c-9.648,4.131-19.625,8.403-32.412,8.403c-12.785,0-22.763-4.272-32.412-8.403
						c-9.607-4.114-18.683-7.999-30.443-7.999c-11.76,0-20.835,3.885-30.444,7.999c-9.648,4.131-19.626,8.403-32.412,8.403
						c-12.786,0-22.764-4.272-32.412-8.403c-9.608-4.114-18.684-7.999-30.444-7.999c-11.761,0-20.836,3.885-30.444,7.999
						c-9.649,4.131-19.626,8.403-32.412,8.403c-5.614,0-11.175-0.83-16.999-2.537l1.406-4.799
						c5.361,1.572,10.461,2.336,15.593,2.336c11.76,0,20.836-3.887,30.444-8c9.649-4.131,19.626-8.402,32.412-8.402
						s22.763,4.271,32.412,8.402c9.608,4.113,18.684,8,30.444,8c11.76,0,20.835-3.887,30.444-8
						c9.648-4.131,19.626-8.402,32.412-8.402c12.786,0,22.764,4.271,32.412,8.402c9.607,4.113,18.684,8,30.443,8
						c11.762,0,20.837-3.887,30.445-8c9.648-4.131,19.625-8.402,32.411-8.402s22.763,4.271,32.412,8.402
						c9.608,4.113,18.683,8,30.444,8c5.135,0,10.234-0.764,15.592-2.336l1.407,4.799C388.411,36.777,382.85,37.607,377.233,37.607z"
						/>
				</g>
				<g>
					<path fill="#FCE200" d="M377.233,13.003c-12.787,0-22.764-4.271-32.412-8.403c-9.608-4.113-18.684-7.999-30.444-7.999
						S293.541,0.486,283.932,4.6c-9.648,4.131-19.625,8.403-32.412,8.403c-12.785,0-22.763-4.271-32.412-8.403
						c-9.607-4.114-18.683-7.999-30.443-7.999c-11.76,0-20.835,3.886-30.444,7.999c-9.648,4.131-19.626,8.403-32.412,8.403
						c-12.786,0-22.764-4.271-32.412-8.403c-9.608-4.114-18.684-7.999-30.444-7.999c-11.761,0-20.836,3.886-30.444,7.999
						c-9.649,4.131-19.626,8.403-32.412,8.403c-5.62,0-11.18-0.83-17-2.537l1.408-4.798c5.356,1.571,10.456,2.334,15.592,2.334
						c11.761,0,20.836-3.886,30.444-7.999c9.649-4.131,19.626-8.403,32.412-8.403s22.763,4.271,32.412,8.403
						c9.608,4.113,18.684,7.999,30.444,7.999c11.76,0,20.835-3.885,30.444-7.999c9.648-4.131,19.626-8.403,32.412-8.403
						c12.786,0,22.764,4.271,32.412,8.403c9.607,4.113,18.684,7.999,30.443,7.999c11.762,0,20.837-3.886,30.445-7.999
						c9.648-4.131,19.625-8.403,32.411-8.403s22.763,4.271,32.412,8.403c9.608,4.113,18.683,7.999,30.444,7.999
						c5.135,0,10.235-0.764,15.592-2.334l1.407,4.798C388.412,12.173,382.851,13.003,377.233,13.003z"/>
				</g>
			</g>
		</g>
	</g>
</g>
</svg>
